HIERARCHY
ROOT Hips
{
	OFFSET 0.000000 0.000000 0.000000 
	CHANNELS 6 Xposition Yposition Zposition Zrotation Yrotation Xrotation
	JOINT LeftUpLeg
	{
		OFFSET 1.363060 -1.794630 0.839290 
		CHANNELS 3 Zrotation Yrotation Xrotation
		JOINT LeftLeg
		{
			OFFSET 2.448110 -6.726130 0.000000 
			CHANNELS 3 Zrotation Yrotation Xrotation
			JOINT LeftFoot
			{
				OFFSET 2.562200 -7.039590 0.000000 
				CHANNELS 3 Zrotation Yrotation Xrotation
				JOINT LeftToeBase
				{
					OFFSET 0.157640 -0.433110 2.322550 
					CHANNELS 3 Zrotation Yrotation Xrotation
					End Site
					{
						OFFSET 0.000000 0.000000 0.000000 
					}
				}
			}
		}
	}
	JOINT RightUpLeg
	{
		OFFSET -1.305520 -1.794630 0.839290 
		CHANNELS 3 Zrotation Yrotation Xrotation
		JOINT RightLeg
		{
			OFFSET -2.542530 -6.985550 0.000000 
			CHANNELS 3 Zrotation Yrotation Xrotation
			JOINT RightFoot
			{
				OFFSET -2.568260 -7.056230 0.000000 
				CHANNELS 3 Zrotation Yrotation Xrotation
				JOINT RightToeBase
				{
					OFFSET -0.164730 -0.452590 2.363150 
					CHANNELS 3 Zrotation Yrotation Xrotation
					End Site
					{
						OFFSET 0.000000 0.000000 0.000000 
					}
				}
			}
		}
	}
	JOINT Spine
	{
		OFFSET 0.028270 2.035590 -0.193380 
		CHANNELS 3 Zrotation Yrotation Xrotation
		JOINT Spine1
		{
			OFFSET 0.056720 2.048850 -0.042750 
			CHANNELS 3 Zrotation Yrotation Xrotation
			JOINT Neck1
			{
				OFFSET -0.054170 1.746240 0.172020 
				CHANNELS 3 Zrotation Yrotation Xrotation
				JOINT Head
				{
					OFFSET 0.104070 1.761360 -0.123970 
					CHANNELS 3 Zrotation Yrotation Xrotation
					End Site
					{
						OFFSET 0.000000 0.000000 0.000000 
					}
				}
			}
			JOINT LeftArm
			{
				OFFSET 3.362410 1.200890 -0.311210 
				CHANNELS 3 Zrotation Yrotation Xrotation
				JOINT LeftForeArm
				{
					OFFSET 4.983000 -0.000000 -0.000000 
					CHANNELS 3 Zrotation Yrotation Xrotation
					JOINT LeftHand
					{
						OFFSET 3.483560 -0.000000 -0.000000 
						CHANNELS 3 Zrotation Yrotation Xrotation
						JOINT LeftHandIndex1
						{
							OFFSET 0.715260 -0.000000 -0.000000 
							CHANNELS 3 Zrotation Yrotation Xrotation
							End Site
							{
								OFFSET 0.000000 0.000000 0.000000 
							}
						}
					}
				}
			}
			JOINT RightArm
			{
				OFFSET -3.136600 1.374050 -0.404650 
				CHANNELS 3 Zrotation Yrotation Xrotation
				JOINT RightForeArm
				{
					OFFSET -5.241900 -0.000000 -0.000000 
					CHANNELS 3 Zrotation Yrotation Xrotation
					JOINT RightHand
					{
						OFFSET -3.444170 -0.000000 -0.000000 
						CHANNELS 3 Zrotation Yrotation Xrotation
						JOINT RightHandIndex1
						{
							OFFSET -0.622530 -0.000000 -0.000000 
							CHANNELS 3 Zrotation Yrotation Xrotation
							End Site
							{
								OFFSET 0.000000 0.000000 0.000000 
							}
						}
					}
				}
			}
		}
	}
}
MOTION
Frames: 12
Frame Time: 0.041667
0.862631 17.772908 -33.236049 -2.240972 2.975132 2.790572 -17.732643 -6.678537 -6.656079 1.288876 8.957839 25.668926 0.622394 0.105861 -12.189520 0.034100 -1.192000 -3.277300 25.154337 2.683699 -7.061792 -2.452349 -9.536620 28.182205 -0.346578 -5.209544 -18.671126 -0.365000 -3.880700 10.741200 0.829091 -2.113952 -2.706010 1.969757 -1.285293 -3.025112 6.874591 -2.932935 2.634740 1.347400 -1.406400 4.265500 -94.360546 3.705388 23.272163 16.274087 -26.271993 -3.462610 0.446089 -0.100171 5.366116 -7.125000 0.000000 0.000000 87.545055 -3.968543 13.026823 -11.254440 20.337046 -1.853446 0.988679 0.488180 -10.850534 7.125000 0.000000 0.000000 
0.867306 17.779309 -33.235236 -2.306427 3.170212 2.826495 -17.604280 -6.883782 -6.660606 1.297755 8.972165 25.698133 0.647625 -0.091097 -12.061270 0.013600 -0.752700 -2.068600 25.268096 2.292574 -7.002630 -2.409018 -9.454644 27.922602 -0.312035 -5.302310 -18.448279 -0.288000 -3.451000 9.537100 1.082129 -1.809801 -2.461668 3.113685 -1.130460 -1.937582 6.272132 -3.148621 2.220265 1.107100 -1.573500 4.045800 -95.255374 2.769177 23.469999 15.823361 -25.769843 -3.299625 0.450652 -0.102997 5.834813 -7.125000 0.000000 0.000000 86.776411 -3.439544 13.093443 -11.417338 20.641255 -1.928444 0.963972 0.542844 -11.066901 7.125000 0.000000 0.000000 
0.871574 17.777582 -33.238589 -2.226590 3.342581 2.872843 -17.711390 -6.831914 -6.834537 1.315872 9.007315 25.806235 0.652741 -0.120054 -12.067631 0.046700 -1.395300 -3.837200 25.140827 2.218578 -6.986712 -2.378845 -9.393056 27.735364 -0.306183 -5.387939 -18.517810 -0.316500 -3.616200 9.999400 0.952176 -1.681954 -2.594741 2.693435 -1.059611 -2.385972 6.473092 -3.191085 2.630572 1.162700 -1.566400 4.138300 -94.763573 3.318899 23.991173 15.919230 -25.857215 -3.331935 0.449950 -0.097439 5.633196 -7.125000 0.000000 0.000000 87.278586 -3.983594 12.627234 -11.506641 20.806156 -1.976886 0.958280 0.530194 -11.211224 7.125000 0.000000 0.000000 
0.875537 17.780326 -33.239300 -2.621950 3.525120 2.802400 -17.287297 -7.024321 -6.810876 1.333283 9.031544 25.893991 0.663503 -0.171948 -12.077602 0.027600 -1.073100 -2.950100 25.595288 2.138923 -6.824453 -2.340515 -9.326182 27.518049 -0.287464 -5.409114 -18.354367 -0.354500 -3.825200 10.585500 0.891420 -1.212357 -2.646068 2.294602 -0.817090 -2.590654 6.114548 -3.710390 2.103181 0.949300 -1.860300 4.175200 -94.305318 3.679027 25.041014 15.882912 -25.795119 -3.315244 0.450976 -0.098854 5.656178 -7.125000 0.000000 0.000000 87.768809 -4.441769 11.405599 -11.516970 20.842050 -1.976234 0.974835 0.498143 -10.659423 7.125000 0.000000 0.000000 
0.886816 17.780427 -33.239605 -2.489213 3.581267 2.920184 -17.484279 -7.184909 -6.897246 1.336061 9.059022 25.956179 0.636298 -0.007303 -12.101504 0.043900 -1.352000 -3.718000 25.428397 2.232857 -6.824380 -2.315748 -9.284241 27.383209 -0.257637 -5.675889 -18.460735 -0.314600 -3.605500 9.969400 0.965555 -1.351330 -2.540472 2.609777 -0.900200 -2.066028 5.970092 -3.382611 2.962286 0.857000 -1.668700 4.270900 -94.677891 3.169795 24.300222 15.714679 -25.598180 -3.260671 0.454080 -0.102382 5.924160 -7.125000 0.000000 0.000000 87.460352 -3.675236 11.947297 -11.438068 20.718533 -1.952897 0.970434 0.497075 -10.857399 7.125000 0.000000 0.000000 
0.890271 17.786219 -33.236861 -2.670472 3.676456 2.885852 -17.271541 -7.259609 -6.903884 1.358351 9.090213 26.056928 0.677639 -0.229590 -12.131288 0.037200 -1.244200 -3.420900 25.634330 2.106649 -6.697908 -2.283883 -9.224591 27.194909 -0.253065 -5.681887 -18.422192 -0.321000 -3.642100 10.071800 1.038059 -1.325002 -2.501799 2.727119 -0.882770 -1.916518 5.499415 -3.422739 2.503311 0.632500 -1.732000 4.026100 -94.895505 3.087559 24.220430 15.648773 -25.516653 -3.221028 0.454723 -0.100327 6.000401 -7.125000 0.000000 0.000000 87.269599 -3.560726 12.551584 -11.445468 20.703944 -1.936757 0.976524 0.526878 -11.154434 7.125000 0.000000 0.000000 
0.897181 17.782561 -33.235236 -2.827607 3.721202 2.922921 -17.125527 -7.234022 -7.007071 1.366705 9.111828 26.122055 0.657335 -0.105104 -12.142862 0.037000 -1.242000 -3.415000 25.727337 1.807880 -6.805360 -2.265152 -9.180067 27.055070 -0.259726 -5.504816 -18.204442 -0.313400 -3.598700 9.950200 1.020260 -1.093221 -2.543339 2.625324 -0.761851 -1.912039 5.609362 -3.492748 2.426963 0.765100 -1.771900 4.268700 -94.842515 3.362109 24.094781 15.471574 -25.266102 -3.144820 0.455764 -0.103968 6.507709 -7.125000 0.000000 0.000000 87.397465 -3.993032 12.193217 -11.534982 20.908884 -1.993704 0.976454 0.499012 -11.425489 7.125000 0.000000 0.000000 
0.896267 17.790183 -33.240418 -2.915572 3.855178 2.986806 -17.001308 -7.373894 -7.131112 1.378942 9.129670 26.175694 0.683768 -0.267302 -12.114625 0.024900 -1.019200 -2.801700 25.859164 1.809811 -6.780140 -2.238730 -9.128523 26.893586 -0.246283 -5.554281 -18.137018 -0.304300 -3.546400 9.804000 0.965701 -1.072108 -2.609249 2.349934 -0.756235 -2.170403 5.620853 -3.571759 3.202224 0.630300 -1.767800 4.232800 -94.509228 3.462171 24.367637 15.559348 -25.357103 -3.175592 0.455230 -0.098433 6.016730 -7.125000 0.000000 0.000000 87.695313 -3.993478 12.333755 -11.580003 20.958988 -2.017297 0.953594 0.533104 -11.311521 7.125000 0.000000 0.000000 
0.892100 17.787744 -33.244076 -3.179443 3.758881 2.950073 -16.702313 -7.280390 -7.192205 1.387029 9.147001 26.234194 0.655547 -0.103148 -12.108598 0.041500 -1.314300 -3.614100 26.171583 1.940089 -6.690300 -2.214354 -9.089241 26.768675 -0.217142 -5.732972 -18.114105 -0.322300 -3.648800 10.090800 1.036733 -1.032932 -2.691782 2.508479 -0.729836 -2.542133 5.662516 -3.556466 3.339098 0.666500 -1.757200 4.290100 -94.651028 3.567685 23.989145 15.371499 -25.066953 -3.081216 0.449178 -0.102207 6.398905 -7.125000 0.000000 0.000000 87.592028 -4.217736 12.501038 -11.631946 21.050357 -2.053074 0.954967 0.491665 -11.227011 7.125000 0.000000 0.000000 
0.900839 17.793638 -33.244483 -3.143252 3.907284 2.995790 -16.748248 -7.524446 -7.163507 1.390374 9.157940 26.255233 0.670278 -0.194458 -12.094593 0.026700 -1.055300 -2.901000 26.116478 1.845477 -6.665909 -2.202001 -9.060335 26.676638 -0.235453 -5.598858 -18.092841 -0.358300 -3.845300 10.641800 1.106280 -1.086253 -2.534772 2.780117 -0.767182 -1.825354 5.653172 -3.473350 3.315808 0.703400 -1.721500 4.305300 -94.932533 3.067816 23.921017 15.216658 -24.902599 -3.030193 0.454473 -0.107217 6.509033 -7.125000 0.000000 0.000000 87.361734 -3.613579 12.490202 -11.632235 21.109845 -2.075587 0.948780 0.476369 -11.149558 7.125000 0.000000 0.000000 
0.902161 17.790589 -33.248344 -3.083322 4.130419 2.999891 -16.788632 -7.654983 -7.193252 1.398905 9.172227 26.295981 0.693414 -0.321821 -12.109249 0.022100 -0.960300 -2.639500 26.074408 1.740805 -6.668790 -2.189581 -9.043220 26.624027 -0.197412 -5.894788 -18.163133 -0.310600 -3.582800 9.905700 1.118076 -1.173368 -2.543022 2.850842 -0.810761 -1.832361 5.373619 -3.385171 3.663116 0.564800 -1.678500 4.518300 -94.945789 3.112491 23.720002 15.163825 -24.831906 -3.017124 0.454477 -0.106209 6.621007 -7.125000 0.000000 0.000000 87.359243 -3.411387 12.382331 -11.622779 21.125510 -2.106898 0.928776 0.436753 -11.008297 7.125000 0.000000 0.000000 
0.903583 17.794247 -33.247531 -3.056829 4.096826 2.939584 -16.838493 -7.544792 -7.188284 1.402401 9.171840 26.303182 0.689354 -0.332375 -12.034623 0.023600 -0.992000 -2.726900 26.014056 1.744853 -6.569677 -2.192961 -9.030863 26.601650 -0.250378 -5.528000 -18.137839 -0.394200 -4.031600 11.165600 1.112675 -1.089232 -2.639718 2.884446 -0.760588 -2.217101 5.285694 -3.308060 4.078077 0.513800 -1.629900 4.694800 -94.997792 3.566269 23.399945 15.185089 -24.842277 -3.025841 0.449857 -0.106673 6.920596 -7.125000 0.000000 0.000000 87.339528 -3.798920 12.810846 -11.766973 21.389725 -2.212756 0.887280 0.421907 -11.176618 7.125000 0.000000 0.000000 
